<?xml version="1.0" encoding="UTF-8"?>
<svg id="Layer_2" data-name="Layer 2" xmlns="http://www.w3.org/2000/svg" viewBox="0 0 962.57 342.52">
  <defs>
    <style>
      .cls-1 {
        fill: #f5854d;
      }

      .cls-2 {
        fill: #303031;
      }
    </style>
  </defs>
  <g id="Layer_1-2" data-name="Layer 1">
    <g>
      <rect class="cls-1" x="148.92" y="0" width="44.81" height="117.9"/>
      <rect class="cls-1" x="148.92" y="224.62" width="44.81" height="117.9"/>
      <rect class="cls-1" x="261.24" y="112.64" width="44.81" height="117.9" transform="translate(455.23 -112.05) rotate(90)"/>
      <rect class="cls-1" x="36.55" y="112.64" width="44.81" height="117.9" transform="translate(230.54 112.64) rotate(90)"/>
      <polygon class="cls-1" points="193.73 224.62 224.69 193.99 308.78 276.31 277.1 307.99 193.73 224.62"/>
      <polygon class="cls-1" points="66.23 309.04 34.54 277.36 117.91 193.99 148.92 224.62 66.23 309.04"/>
      <polygon class="cls-1" points="33.88 66.21 65.56 34.53 148.92 117.9 117.9 149.19 33.88 66.21"/>
      <polygon class="cls-1" points="297.79 0 244.62 0 244.62 44.81 297.79 44.81 297.79 97.97 342.59 97.97 342.59 44.81 342.59 0 297.79 0"/>
    </g>
    <g>
      <path class="cls-2" d="M484.41,132.97c-7.78,0-14.99-1.23-21.61-3.68-6.63-2.45-12.37-5.95-17.24-10.49-4.87-4.54-8.64-9.91-11.33-16.12-2.69-6.21-4.03-13.07-4.03-20.57s1.34-14.36,4.03-20.57c2.69-6.21,6.46-11.58,11.33-16.12,4.87-4.54,10.61-8.04,17.24-10.49,6.62-2.45,13.83-3.68,21.61-3.68,9.54,0,18,1.67,25.37,5s13.46,8.16,18.28,14.46l-20.71,18.49c-2.87-3.61-6.05-6.42-9.52-8.41-3.47-1.99-7.39-2.99-11.75-2.99-3.43,0-6.53.56-9.31,1.67-2.78,1.11-5.17,2.73-7.16,4.87-1.99,2.13-3.54,4.7-4.66,7.71-1.11,3.01-1.67,6.37-1.67,10.08s.56,7.07,1.67,10.08c1.11,3.01,2.66,5.58,4.66,7.71,1.99,2.13,4.38,3.75,7.16,4.86,2.78,1.11,5.88,1.67,9.31,1.67,4.35,0,8.27-.99,11.75-2.99,3.48-1.99,6.65-4.8,9.52-8.41l20.71,18.49c-4.82,6.21-10.91,11-18.28,14.39-7.37,3.38-15.82,5.07-25.37,5.07Z"/>
      <path class="cls-2" d="M551.27,48.59c-5.75,0-10.33-1.53-13.76-4.59-3.43-3.06-5.14-6.86-5.14-11.4s1.71-8.34,5.14-11.4c3.43-3.06,8.01-4.59,13.76-4.59s10.33,1.44,13.76,4.31c3.43,2.87,5.14,6.58,5.14,11.12,0,4.82-1.71,8.78-5.14,11.88-3.43,3.11-8.02,4.66-13.76,4.66ZM535.56,130.74V54.71h31.41v76.03h-31.41Z"/>
      <path class="cls-2" d="M602.42,130.74l-30.58-76.03h32.25l23.21,61.72h-16.26l24.74-61.72h29.75l-30.58,76.03h-32.53Z"/>
      <path class="cls-2" d="M686.1,48.59c-5.75,0-10.33-1.53-13.76-4.59-3.43-3.06-5.14-6.86-5.14-11.4s1.71-8.34,5.14-11.4c3.43-3.06,8.01-4.59,13.76-4.59s10.33,1.44,13.76,4.31c3.43,2.87,5.14,6.58,5.14,11.12,0,4.82-1.71,8.78-5.14,11.88-3.43,3.11-8.02,4.66-13.76,4.66ZM670.39,130.74V54.71h31.41v76.03h-31.41Z"/>
      <path class="cls-2" d="M756.57,132.13c-8.71,0-16.45-1.67-23.21-5-6.76-3.34-12.07-7.99-15.92-13.97-3.85-5.98-5.77-12.81-5.77-20.5s1.92-14.5,5.77-20.43c3.84-5.93,9.15-10.56,15.92-13.9,6.76-3.34,14.5-5,23.21-5,9.26,0,17.19,1.99,23.77,5.98,6.58,3.99,11.12,9.5,13.62,16.54l-24.33,11.95c-1.58-3.52-3.5-6.07-5.77-7.65-2.27-1.57-4.75-2.36-7.44-2.36-2.32,0-4.47.56-6.46,1.67-1.99,1.11-3.57,2.76-4.73,4.93-1.16,2.18-1.74,4.93-1.74,8.27s.58,6.12,1.74,8.34c1.16,2.22,2.73,3.89,4.73,5,1.99,1.11,4.15,1.67,6.46,1.67,2.69,0,5.17-.79,7.44-2.36,2.27-1.57,4.19-4.12,5.77-7.65l24.33,11.95c-2.5,7.04-7.04,12.56-13.62,16.54-6.58,3.99-14.5,5.98-23.77,5.98Z"/>
      <path class="cls-2" d="M434.09,297.54v-97.3h79.09v24.74h-46.84v47.82h48.65v24.74h-80.9ZM464.12,260.01v-23.63h43.37v23.63h-43.37Z"/>
      <path class="cls-2" d="M526.67,297.54v-76.03h29.88v22.24l-5.98-6.39c2.96-5.75,6.97-10.05,12.02-12.93,5.05-2.87,10.68-4.31,16.89-4.31,5.84,0,11.12,1.18,15.85,3.54,4.73,2.36,8.46,6.05,11.19,11.05,2.73,5,4.1,11.49,4.1,19.46v43.37h-31.41v-37.95c0-4.73-.83-8.08-2.5-10.08-1.67-1.99-3.94-2.99-6.81-2.99-2.13,0-4.1.49-5.91,1.46-1.81.97-3.25,2.57-4.31,4.8-1.07,2.22-1.6,5.24-1.6,9.04v35.72h-31.41Z"/>
      <path class="cls-2" d="M667.61,298.93c-9.27,0-17.35-1.71-24.25-5.14-6.9-3.43-12.26-8.13-16.05-14.11-3.8-5.98-5.7-12.72-5.7-20.22s1.88-14.5,5.63-20.43c3.75-5.93,8.9-10.56,15.43-13.9s13.88-5,22.03-5c7.51,0,14.43,1.48,20.78,4.45,6.35,2.97,11.44,7.37,15.29,13.21,3.84,5.84,5.77,13.07,5.77,21.68,0,1.11-.05,2.34-.14,3.68-.09,1.34-.19,2.57-.28,3.68h-58.52v-15.15h41.84l-11.82,4.03c0-2.96-.53-5.49-1.6-7.58-1.07-2.08-2.53-3.71-4.38-4.87-1.85-1.16-4.08-1.74-6.67-1.74s-4.84.58-6.74,1.74c-1.9,1.16-3.36,2.78-4.38,4.87-1.02,2.08-1.53,4.61-1.53,7.58v4.73c0,3.25.65,6.03,1.95,8.34,1.3,2.32,3.15,4.06,5.56,5.21,2.41,1.16,5.33,1.74,8.76,1.74s6.42-.46,8.69-1.39c2.27-.93,4.66-2.32,7.16-4.17l16.4,16.54c-3.71,3.99-8.27,7.02-13.69,9.1-5.42,2.08-11.93,3.13-19.53,3.13Z"/>
      <path class="cls-2" d="M716.4,297.54v-76.03h29.88v22.94l-4.87-6.53c2.32-5.93,6.02-10.38,11.12-13.34,5.1-2.96,11.21-4.45,18.35-4.45v27.8c-1.39-.18-2.62-.32-3.68-.42-1.07-.09-2.16-.14-3.27-.14-4.73,0-8.6,1.23-11.61,3.68-3.01,2.46-4.52,6.7-4.52,12.72v33.78h-31.41Z"/>
      <path class="cls-2" d="M811.61,293.37c-6.39,0-12.37-1.5-17.93-4.52-5.56-3.01-10.06-7.25-13.48-12.72-3.43-5.47-5.14-11.95-5.14-19.46s1.71-13.99,5.14-19.46c3.43-5.47,7.92-9.68,13.48-12.65,5.56-2.96,11.54-4.45,17.93-4.45s11.98,1.3,16.19,3.89c4.21,2.59,7.34,6.6,9.38,12.02,2.04,5.42,3.06,12.3,3.06,20.64s-1.02,15.22-3.06,20.64c-2.04,5.42-5.17,9.45-9.38,12.09-4.22,2.64-9.62,3.96-16.19,3.96ZM817.73,325.9c-7.51,0-14.55-.79-21.13-2.36-6.58-1.58-12.23-3.94-16.96-7.09l10.56-21.41c2.96,2.32,6.74,4.15,11.33,5.49,4.59,1.34,8.92,2.02,13,2.02,6.49,0,11.12-1.37,13.9-4.1s4.17-6.65,4.17-11.75v-6.39l1.39-23.63.14-23.63v-11.54h29.88v60.88c0,14.73-4.08,25.67-12.23,32.8-8.16,7.13-19.51,10.7-34.06,10.7ZM819.96,268.91c2.5,0,4.73-.51,6.67-1.53,1.95-1.02,3.47-2.45,4.59-4.31,1.11-1.85,1.67-3.98,1.67-6.39s-.56-4.66-1.67-6.46c-1.11-1.81-2.64-3.2-4.59-4.17-1.95-.97-4.17-1.46-6.67-1.46s-4.61.49-6.6,1.46c-1.99.97-3.57,2.36-4.73,4.17-1.16,1.81-1.74,3.96-1.74,6.46s.58,4.54,1.74,6.39c1.16,1.85,2.73,3.29,4.73,4.31,1.99,1.02,4.19,1.53,6.6,1.53Z"/>
      <path class="cls-2" d="M901.96,301.02l-33.08-79.51h32.25l22.8,59.21-21.96,20.29ZM894.6,325.9c-4.17,0-8.41-.63-12.72-1.88-4.31-1.25-7.76-2.9-10.36-4.93l10.43-21.54c1.57,1.2,3.36,2.18,5.35,2.92,1.99.74,3.91,1.11,5.77,1.11,2.78,0,4.91-.58,6.39-1.74,1.48-1.16,2.69-2.9,3.61-5.21l3.2-8.06,2.22-3.06,24.33-61.99h29.75l-31.27,77.56c-2.78,6.95-6,12.37-9.66,16.26-3.66,3.89-7.74,6.62-12.23,8.2-4.5,1.57-9.43,2.36-14.8,2.36Z"/>
    </g>
  </g>
</svg>